name ./resultDataOpenSim/trcMotMarkerGrf/sub06/grf-15-03.mot
datacolumns 19
datarows 20
range 1.56000000 1.63600000
endheader

                time	     ground_force_vx	     ground_force_vy	     ground_force_vz	     ground_force_px	     ground_force_py	     ground_force_pz	   l_ground_force_vx	   l_ground_force_vy	   l_ground_force_vz	   l_ground_force_px	   l_ground_force_py	   l_ground_force_pz	     ground_torque_x	     ground_torque_y	     ground_torque_z	   l_ground_torque_x	   l_ground_torque_y	   l_ground_torque_z	
          1.56000000	         43.62635728	        369.60314091	        -11.40456613	          0.97931697	          0.00000000	          0.08190655	          0.00000000	          0.00000000	          0.00000000	          0.00000000	          0.00000000	          0.00000000	          0.00000000	          0.56134824	          0.00000000	          0.00000000	          0.00000000	          0.00000000	
          1.56400000	         44.22296838	        378.45502973	        -12.23311896	          0.97983959	          0.00000000	          0.08155644	          0.00000000	          0.00000000	          0.00000000	          0.00000000	          0.00000000	          0.00000000	          0.00000000	          0.63631813	          0.00000000	          0.00000000	          0.00000000	          0.00000000	
          1.56800000	         45.39356182	        387.97409749	        -13.31241189	          0.98025513	          0.00000000	          0.08122135	          0.00000000	          0.00000000	          0.00000000	          0.00000000	          0.00000000	          0.00000000	          0.00000000	          0.69712316	          0.00000000	          0.00000000	          0.00000000	          0.00000000	
          1.57200000	         47.52174396	        398.16965656	        -14.46598996	          0.98049191	          0.00000000	          0.08089776	          0.00000000	          0.00000000	          0.00000000	          0.00000000	          0.00000000	          0.00000000	          0.00000000	          0.73587112	          0.00000000	          0.00000000	          0.00000000	          0.00000000	
          1.57600000	         50.76694830	        409.01098497	        -15.52111568	          0.98050658	          0.00000000	          0.08057292	          0.00000000	          0.00000000	          0.00000000	          0.00000000	          0.00000000	          0.00000000	          0.00000000	          0.75092476	          0.00000000	          0.00000000	          0.00000000	          0.00000000	
          1.58000000	         55.03536803	        420.41086956	        -16.34448833	          0.98035863	          0.00000000	          0.08024258	          0.00000000	          0.00000000	          0.00000000	          0.00000000	          0.00000000	          0.00000000	          0.00000000	          0.74758139	          0.00000000	          0.00000000	          0.00000000	          0.00000000	
          1.58400000	         60.01760575	        432.24445585	        -16.87182342	          0.98011446	          0.00000000	          0.07990578	          0.00000000	          0.00000000	          0.00000000	          0.00000000	          0.00000000	          0.00000000	          0.00000000	          0.73630286	          0.00000000	          0.00000000	          0.00000000	          0.00000000	
          1.58800000	         65.27602567	        444.38574007	        -17.12362661	          0.97986379	          0.00000000	          0.07956673	          0.00000000	          0.00000000	          0.00000000	          0.00000000	          0.00000000	          0.00000000	          0.00000000	          0.72918324	          0.00000000	          0.00000000	          0.00000000	          0.00000000	
          1.59200000	         70.36810687	        456.73125147	        -17.19816061	          0.97972801	          0.00000000	          0.07923379	          0.00000000	          0.00000000	          0.00000000	          0.00000000	          0.00000000	          0.00000000	          0.00000000	          0.73609682	          0.00000000	          0.00000000	          0.00000000	          0.00000000	
          1.59600000	         74.96544212	        469.19821983	        -17.24246154	          0.97972984	          0.00000000	          0.07891217	          0.00000000	          0.00000000	          0.00000000	          0.00000000	          0.00000000	          0.00000000	          0.00000000	          0.76197925	          0.00000000	          0.00000000	          0.00000000	          0.00000000	
          1.60000000	         78.94133078	        481.72879040	        -17.41364229	          0.97989086	          0.00000000	          0.07861122	          0.00000000	          0.00000000	          0.00000000	          0.00000000	          0.00000000	          0.00000000	          0.00000000	          0.80601398	          0.00000000	          0.00000000	          0.00000000	          0.00000000	
          1.60400000	         82.40032461	        494.30380043	        -17.84089247	          0.98017811	          0.00000000	          0.07833866	          0.00000000	          0.00000000	          0.00000000	          0.00000000	          0.00000000	          0.00000000	          0.00000000	          0.86255657	          0.00000000	          0.00000000	          0.00000000	          0.00000000	
          1.60800000	         85.63518307	        506.94051296	        -18.59929430	          0.98048976	          0.00000000	          0.07809329	          0.00000000	          0.00000000	          0.00000000	          0.00000000	          0.00000000	          0.00000000	          0.00000000	          0.92304743	          0.00000000	          0.00000000	          0.00000000	          0.00000000	
          1.61200000	         89.04258290	        519.68145447	        -19.70008104	          0.98077902	          0.00000000	          0.07786431	          0.00000000	          0.00000000	          0.00000000	          0.00000000	          0.00000000	          0.00000000	          0.00000000	          0.97819562	          0.00000000	          0.00000000	          0.00000000	          0.00000000	
          1.61600000	         93.01688761	        532.56763069	        -21.09403520	          0.98096819	          0.00000000	          0.07763859	          0.00000000	          0.00000000	          0.00000000	          0.00000000	          0.00000000	          0.00000000	          0.00000000	          1.02004214	          0.00000000	          0.00000000	          0.00000000	          0.00000000	
          1.62000000	         97.84440499	        545.59647049	        -22.68598286	          0.98101021	          0.00000000	          0.07740584	          0.00000000	          0.00000000	          0.00000000	          0.00000000	          0.00000000	          0.00000000	          0.00000000	          1.04375127	          0.00000000	          0.00000000	          0.00000000	          0.00000000	
          1.62400000	        103.62548270	        558.69212409	        -24.34824153	          0.98092318	          0.00000000	          0.07715818	          0.00000000	          0.00000000	          0.00000000	          0.00000000	          0.00000000	          0.00000000	          0.00000000	          1.04894336	          0.00000000	          0.00000000	          0.00000000	          0.00000000	
          1.62800000	        110.24403915	        571.70335288	        -25.93270531	          0.98075072	          0.00000000	          0.07688547	          0.00000000	          0.00000000	          0.00000000	          0.00000000	          0.00000000	          0.00000000	          0.00000000	          1.04016021	          0.00000000	          0.00000000	          0.00000000	          0.00000000	
          1.63200000	        117.41219934	        584.42566562	        -27.29209688	          0.98056444	          0.00000000	          0.07657722	          0.00000000	          0.00000000	          0.00000000	          0.00000000	          0.00000000	          0.00000000	          0.00000000	          1.02603050	          0.00000000	          0.00000000	          0.00000000	          0.00000000	
          1.63600000	        124.76828337	        596.62623201	        -28.30104490	          0.98043160	          0.00000000	          0.07622790	          0.00000000	          0.00000000	          0.00000000	          0.00000000	          0.00000000	          0.00000000	          0.00000000	          1.01709745	          0.00000000	          0.00000000	          0.00000000	          0.00000000	
